<svg version="1.2" xmlns="http://www.w3.org/2000/svg" viewBox="0 0 1024 1024" width="1024" height="1024"><style>.a{fill:#009e27}.b{fill:#006ed8}</style><path fill-rule="evenodd" class="a" d="m512 103v312.5l-4.7-4.6c-2.7-2.5-7-6.3-9.8-8.5-2.7-2.2-7.2-5.5-10-7.4-2.7-1.8-8.6-5.2-13-7.5-4.4-2.3-12.7-5.8-18.5-7.8-5.8-1.9-14.3-4.4-19-5.4-6.6-1.4-12.9-1.8-27.5-1.8-14.5 0-21 0.4-27.5 1.8-4.7 1-12.6 3.2-17.5 4.9-4.9 1.6-13.1 5-18 7.5-4.9 2.4-13.1 7.3-18 10.8-4.9 3.6-13 10.4-17.8 15.2-4.8 4.9-11.5 12.6-14.8 17.3-3.4 4.7-8.3 12.8-10.9 18-2.6 5.2-6.2 13.6-7.9 18.5-1.8 4.9-4.1 13.7-5.3 19.5-1.6 7.9-2.1 14.4-2.2 26 0 11 0.5 18.1 1.7 24.5 1 5 2.9 12.8 4.3 17.5 1.4 4.7 5.2 13.9 8.5 20.5 3.3 6.6 8.5 15.4 11.7 19.6 3.1 4.2 7.7 9.9 10.2 12.6 2.5 2.7 7.4 7.5 11 10.7 3.6 3.2 10.3 8.3 15 11.4 4.7 3.1 12.6 7.5 17.5 9.8 4.9 2.4 12.4 5.4 16.5 6.7 4.1 1.4 11.3 3.3 16 4.3 6.7 1.5 12.7 1.9 28 1.9 15.3 0 21.3-0.4 28-1.9 4.7-1 12.3-3.2 17-4.8 4.7-1.6 13-5.2 18.5-8 5.5-2.7 13.4-7.4 17.5-10.3 4.1-2.9 10.5-8.3 21-18.5v313l-68.8-0.4c-57.5-0.3-70.7-0.6-80.7-2-6.6-0.9-16.7-2.5-22.5-3.6-5.8-1-14.8-2.8-20-3.9-5.2-1.2-14.9-3.7-21.5-5.7-6.6-2-16.3-5.1-21.5-6.9-5.2-1.8-13.6-4.9-18.5-6.8-4.9-2-12.6-5.2-17-7.2-4.4-2-12.5-5.9-18-8.7-5.5-2.8-14.3-7.5-19.5-10.6-5.2-3-14.7-8.9-21-13.1-6.3-4.1-14.7-9.9-18.5-12.9-3.8-2.9-11.7-9.2-17.5-14-5.8-4.8-16.8-15-24.6-22.7-7.7-7.7-16.2-16.5-19-19.6-2.7-3.1-5.8-6.7-6.9-8-1.1-1.3-4.6-5.5-7.6-9.4-3.1-3.9-9.4-12.4-14.1-19-4.6-6.6-10.4-15.3-12.9-19.3-2.4-4.1-5.9-9.9-7.7-13-1.8-3.2-6.5-12.2-10.5-20.2-4-8-8.5-17.4-10.1-21-1.5-3.6-5.3-13.3-8.3-21.5-3-8.3-7-20.4-8.9-27-1.9-6.6-4.8-18.1-6.4-25.5-1.5-7.4-3.7-19.4-4.9-26.5-1.1-7.1-2.5-18.4-3.1-25-0.5-6.6-1.2-19.9-1.4-29.5-0.2-9.6 0-23.1 0.5-30 0.4-6.9 1.3-16.8 1.9-22 0.6-5.2 2.2-16 3.6-24 1.3-8 3.9-20.6 5.8-28 1.9-7.4 5.7-20.5 8.4-29 2.7-8.5 7.3-21.1 10.2-28 2.8-6.9 8-18.4 11.5-25.5 3.5-7.1 9.4-18.2 13.1-24.5 3.7-6.3 9.4-15.6 12.7-20.5 3.3-4.9 9.8-14.2 14.6-20.5 4.7-6.3 11.7-15.1 15.4-19.5 3.8-4.4 11.2-12.4 16.5-17.9 5.4-5.4 14.2-13.9 19.7-19 5.5-5 13.4-11.8 17.5-15.2 4.1-3.3 11.6-8.9 16.5-12.5 4.9-3.6 11.7-8.4 15-10.6 3.3-2.2 11.2-7 17.5-10.8 6.3-3.7 18.9-10.5 28-14.9 9.1-4.5 22.6-10.6 30-13.5 7.4-2.9 18.9-7 25.5-9.1 6.6-2.1 16.3-5 21.5-6.4 5.2-1.4 14.9-3.6 21.5-5 6.6-1.4 18.8-3.4 27-4.6 8.3-1.1 20.4-2.4 27-2.9 6.6-0.4 38.7-0.9 130.5-1.1zm-305.7 506.2c-1.5 0.9-4 3-5.6 4.7-1.5 1.7-3.6 5.2-4.8 7.9-1.7 3.7-2 6-1.6 11.2 0.3 3.6 1.2 7.9 2 9.5 0.9 1.6 4.6 7.3 8.4 12.6 3.7 5.3 8.8 12 11.3 14.9 2.5 3 6.7 7.9 9.5 11 2.7 3 7.4 7.8 10.5 10.6 3 2.9 7.1 6.6 9 8.3 1.9 1.8 7.1 6.1 11.5 9.5 4.4 3.5 13.1 9.6 19.2 13.5 6.2 3.9 11.5 7.1 11.8 7.1 0.3 0 2.2 1.1 4.2 2.3 2.1 1.3 7.6 4.1 12.3 6.2 4.7 2 9.8 4.3 11.5 5 1.6 0.7 6.1 2.5 10 3.9 3.8 1.4 11.7 3.9 17.5 5.5 5.8 1.6 13.2 3.5 16.5 4.1 3.3 0.6 10 1.8 15 2.6 4.9 0.8 17.1 1.7 27 2.1 11.5 0.4 22.2 0.2 29.5-0.6 6.3-0.7 16.7-2.1 23-3.2 6.3-1 13.5-2.7 16-3.6 2.5-1 5.8-2.9 7.4-4.3 1.6-1.4 3.9-4.3 5.3-6.5 1.4-2.4 2.6-6.5 3-10 0.5-4.6 0.2-7.1-1.2-11-1.1-2.7-3.3-6.5-5-8.4-1.6-1.9-5.3-4.5-8-5.8-3.3-1.5-6.9-2.3-10.5-2.3-3 0-7.1 0.5-9 1-1.9 0.6-6.2 1.5-9.5 2-3.3 0.5-11.6 1.4-18.5 2-8.9 0.8-16.9 0.8-27.5 0-8.3-0.5-20.2-2.1-26.5-3.4-6.3-1.3-17.1-4.2-24-6.5-6.9-2.3-17.9-6.8-24.5-10.1-6.6-3.2-15.6-8.2-20-11.1-4.4-2.8-10.7-7.2-14-9.8-3.3-2.5-10.9-9.3-16.9-15.1-5.9-5.8-13.6-14.1-17-18.5-3.5-4.4-8.5-11.4-11.3-15.5-2.8-4.1-6.9-8.7-9-10.1-2.1-1.5-5.6-3.1-7.8-3.8-2.2-0.6-5.6-1.1-7.5-1-1.9 0-4.7 0.4-6.2 0.8-1.5 0.5-4 1.5-5.5 2.3zm-80.8 51c-1.7 0.9-4.5 3.1-6.4 4.9-1.9 1.9-4.2 5.2-5.2 7.4-1.1 2.3-1.9 6.4-1.9 9.8 0 3.1 0.6 7.2 1.3 9 0.8 1.7 4.4 7.7 8 13.2 3.7 5.5 7.4 11.1 8.4 12.5 0.9 1.4 5.2 6.8 9.4 12 4.2 5.2 10 12.2 13 15.5 3 3.3 7.7 8.2 10.4 11 2.8 2.7 9.3 8.8 14.5 13.4 5.2 4.7 9.7 8.7 10 9 0.3 0.3 3.4 2.8 7 5.6 3.6 2.7 6.7 5.2 7 5.5 0.3 0.3 1.8 1.4 3.5 2.6 1.6 1.1 8.4 5.7 15 10.1 6.6 4.4 15.1 9.7 19 11.8 3.8 2.1 10.4 5.6 14.5 7.7 4.1 2.1 13.6 6.5 21 9.7 7.4 3.3 18.4 7.6 24.5 9.6 6 2 13.5 4.4 16.5 5.2 3 0.8 9.5 2.5 14.5 3.7 4.9 1.3 13 3.1 18 3.9 4.9 0.9 14.6 2.4 21.5 3.4 9.3 1.3 19.6 1.7 40.5 1.7 21.3 0.1 31.2-0.4 41.5-1.7 7.4-1 15.5-2.5 18-3.4 2.5-0.9 6.3-3.3 8.4-5.2 2.2-2 5-5.8 6.2-8.6 1.4-3 2.4-6.8 2.3-9.5 0-2.5-0.6-6.3-1.4-8.5-0.8-2.2-2.5-5.4-3.8-7.2-1.2-1.8-4-4.3-6.2-5.8-2.2-1.4-6.3-3-9-3.6-3.8-0.8-7.1-0.6-14 0.5-5 0.9-16.2 2.1-25 2.7-12 0.9-20.4 0.9-33.5 0-9.6-0.6-22-1.8-27.5-2.6-5.5-0.9-15.2-2.7-21.5-4.1-6.3-1.4-18.9-5-28-8-9.1-3.1-22.4-8.2-29.5-11.5-7.2-3.3-17.7-8.7-23.5-12.1-5.8-3.3-14.8-9-20-12.6-5.2-3.6-13.3-9.5-18-13.1-4.6-3.6-14.7-12.7-22.4-20.1-7.6-7.4-18.2-18.9-23.5-25.5-5.3-6.6-13.1-17.1-17.4-23.2-5.2-7.6-9-12.1-11.7-13.8-2.2-1.4-5.2-2.7-6.7-3-1.6-0.3-3.7-0.7-4.8-0.9-1.1-0.2-3.8 0-6 0.4-2.2 0.4-5.4 1.4-7 2.2z"/><path fill-rule="evenodd" class="b" d="m512 103h512v818h-512zm51 768h410v-718h-410z"/><path class="a" d="m399.5 489c-2.2 1.2-5.5 3.5-7.3 5.3-1.8 1.8-4.1 5.1-5.2 7.5-1.3 2.7-2 6.3-2 10.2 0 4.2 0.7 7.4 2.3 10.7 1.2 2.5 4 6.3 6.3 8.2 2.2 2 5.8 4.2 8 4.8 2.1 0.7 5.7 1.3 7.9 1.3 2.2 0 5.6-0.5 7.5-1.1 1.9-0.7 5.4-2.6 7.7-4.3 2.5-1.8 5.4-5.2 6.9-8.1 1.8-3.6 2.5-6.7 2.6-11 0.1-4.1-0.5-7.4-1.9-10.5-1.1-2.5-3.4-5.9-5-7.5-1.6-1.6-4.7-3.9-6.9-5-2.3-1.1-6.5-2-10.4-2.2-5-0.3-7.4 0.1-10.5 1.7z"/><path class="b" d="m746 302c-3.6 0.5-10.8 1.9-16 3.1-5.2 1.2-12.9 3.4-17 4.9-4.1 1.6-10.6 4.3-14.5 6.2-3.9 1.8-9.9 5.1-13.5 7.2-3.6 2.2-10.1 6.8-14.5 10.2-4.4 3.4-11.4 9.7-15.7 14.1-4.2 4.3-9.8 10.7-12.5 14.3-2.7 3.6-6.5 9.2-8.5 12.5-2 3.3-5.3 9.4-7.3 13.5-2.1 4.1-5.2 12-7.1 17.5-1.8 5.5-4.2 14.5-5.3 20-1.1 5.5-2.3 14.7-2.7 20.5-0.5 8.5-0.3 11.6 1.1 16.5 0.9 3.3 2.6 7.8 3.8 10 1.1 2.2 3.9 5.8 6.1 8 2.3 2.2 6.1 5.2 8.6 6.6 2.5 1.4 6.8 3.1 9.5 3.9 3 0.8 7.6 1.1 11.5 0.8 4.5-0.3 8.5-1.4 13-3.5 4-1.9 8.2-5 11-8 2.5-2.7 5.1-5.9 5.8-7.1 0.6-1.2 2.1-4.6 3.1-7.5 1.1-2.9 2.2-9.4 2.5-14.7 0.3-5.2 1.3-12.4 2.2-16 0.9-3.6 3.6-10.6 6-15.5 3-6.3 6.4-11.2 11.1-16.4 3.7-4.1 9.1-9.1 11.8-11.1 2.7-2 7.8-5.1 11.3-6.9 3.4-1.7 9.7-4.1 13.9-5.3 6.2-1.7 10.5-2.2 20.3-2.2 9-0.1 14.4 0.5 19.5 1.8 3.9 1 10.6 3.6 15 5.6 4.4 2.1 10.9 6.3 14.5 9.2 3.6 3 8.7 8.1 11.4 11.3 2.6 3.3 6.8 10.1 9.1 15 2.4 4.9 5 12.3 5.9 16.2 0.9 4.1 1.6 11.8 1.6 17.5 0 5.7-0.7 13.2-1.4 16.8-0.8 3.6-2.6 9.4-4.1 13-1.5 3.6-4.3 9-6.3 12-1.9 3-5.8 7.9-8.6 10.9-2.8 2.9-7.4 7-10.1 9.1-2.8 2-7.7 5.1-11 6.7-3.3 1.7-9.1 4-13 5.2-3.9 1.2-12 2.6-18 3.1-6 0.5-12.8 1.5-15 2.1-2.2 0.6-6.3 2.6-9 4.4-2.8 1.8-6.2 4.5-7.6 6.1-1.5 1.6-3.8 4.7-5.1 6.9-1.4 2.2-3.3 7.4-4.3 11.5-1.5 6.3-1.6 8.4-0.6 13 0.6 3 2.2 7.7 3.4 10.5 1.3 2.7 4.6 7.3 7.3 10 2.7 2.8 6.5 5.8 8.4 6.9 1.9 1 5.5 2.4 8 3.2 2.6 0.8 8.8 1.4 14.5 1.4 5.5 0 13.8-0.6 18.5-1.4 4.7-0.8 11.9-2.3 16-3.4 4.1-1.1 10-2.9 13-4 3-1.2 9.3-3.9 14-6.1 4.7-2.2 9.8-4.8 11.5-5.8 1.6-1 6.6-4.4 11-7.5 4.4-3.2 9.1-6.7 10.5-7.9 1.4-1.2 4.5-4 7-6.3 2.5-2.3 6.3-6.2 8.5-8.7 2.2-2.5 6-7.2 8.5-10.5 2.5-3.2 6-8.4 7.9-11.4 1.8-3 5-8.9 7-13 2-4.1 4.9-10.9 6.3-15 1.5-4.1 3.6-10.9 4.7-15 1-4.1 2.5-11.1 3.2-15.5 0.6-4.4 1.2-13.9 1.1-21 0-7.1-0.5-16.8-1.2-21.5-0.6-4.7-2.2-12.6-3.6-17.5-1.3-4.9-3.5-11.9-5-15.5-1.4-3.6-3.9-9.4-5.6-13-1.6-3.6-5.8-10.8-9.3-16-3.5-5.2-9.4-13.1-13.2-17.5-3.8-4.4-10.5-11.1-14.9-14.8-4.3-3.8-10.8-8.8-14.4-11.2-3.6-2.4-10.8-6.6-16-9.4-5.2-2.8-14-6.6-19.5-8.5-5.5-1.9-14.5-4.4-20-5.6-7-1.4-14.8-2.2-26-2.5-8.8-0.2-18.9 0-22.5 0.5zm7 336.6c-3 0.8-7.5 2.7-10 4.2-2.5 1.4-6.7 4.9-9.4 7.7-2.6 2.7-6.2 7.9-8 11.5-2.9 6.1-3.1 7.1-3.1 18 0 11 0.1 11.8 3.2 17.7 1.8 3.5 5.2 8.4 7.5 10.9 2.4 2.5 6.8 6.1 9.8 7.8 3 1.8 7.5 3.7 10 4.4 2.5 0.6 6.1 1.3 8 1.5 1.9 0.3 6.2 0 9.5-0.5 3.3-0.5 8.2-1.9 11-3.2 2.7-1.2 6.8-3.5 8.9-5.1 2.2-1.7 5.9-5.7 8.3-9 2.6-3.5 5.2-8.7 6.4-12.5 1.1-3.6 1.9-9.2 1.9-12.5 0-3.3-0.6-8.3-1.4-11-0.8-2.8-2.6-7-4-9.5-1.4-2.5-4.7-6.7-7.3-9.4-2.8-2.9-7.7-6.3-11.8-8.3-5.8-2.8-8.4-3.5-15.5-3.8-5.9-0.4-10.2 0-14 1.1z"/></svg>