<svg xmlns="http://www.w3.org/2000/svg" xmlns:xlink="http://www.w3.org/1999/xlink" width="500" zoomAndPan="magnify" viewBox="0 0 375 374.999991" height="500" preserveAspectRatio="xMidYMid meet" version="1.0"><defs><g/><clipPath id="902a817593"><path d="M 91 117 L 165 117 L 165 193.613281 L 91 193.613281 Z M 91 117 " clip-rule="nonzero"/></clipPath><clipPath id="da48f10ccf"><path d="M 91 125 L 158 125 L 158 193.613281 L 91 193.613281 Z M 91 125 " clip-rule="nonzero"/></clipPath><clipPath id="35563fb87f"><path d="M 142 96.113281 L 229 96.113281 L 229 188 L 142 188 Z M 142 96.113281 " clip-rule="nonzero"/></clipPath></defs><g clip-path="url(#902a817593)"><path fill="#ff2c19" d="M 146.214844 117.726562 L 100.273438 122.09375 C 93.855469 122.703125 89.730469 129.714844 91.414062 137.15625 L 100.21875 176.070312 C 101.875 183.390625 108.449219 187.980469 114.46875 186.023438 L 133.523438 179.828125 C 135.542969 179.171875 137.777344 179.675781 139.574219 181.1875 L 156.113281 193.230469 C 156.628906 193.605469 157.230469 193.105469 157.074219 192.433594 L 153.316406 176.199219 C 152.976562 174.726562 153.652344 173.285156 154.863281 172.890625 L 158.371094 171.75 C 163.054688 170.226562 165.660156 164.652344 164.34375 158.964844 L 156.863281 126.652344 C 155.582031 121.117188 150.996094 117.269531 146.214844 117.726562 " fill-opacity="1" fill-rule="nonzero"/></g><g clip-path="url(#da48f10ccf)"><path fill="#e62816" d="M 157.074219 192.433594 L 155.941406 187.535156 L 138.679688 175.554688 C 137.222656 174.542969 135.371094 174.273438 133.683594 174.820312 L 117.3125 180.144531 C 107.785156 183.300781 105.695312 179.75 103.058594 170.191406 L 94.257812 131.277344 C 93.785156 129.1875 93.769531 127.136719 94.132812 125.246094 C 91.558594 128.105469 90.371094 132.550781 91.414062 137.15625 L 100.21875 176.070312 C 101.875 183.390625 108.449219 187.980469 114.46875 186.023438 L 133.523438 179.828125 C 135.539062 179.171875 137.777344 179.675781 139.574219 181.1875 L 156.113281 193.230469 C 156.628906 193.605469 157.230469 193.105469 157.074219 192.433594 " fill-opacity="1" fill-rule="nonzero"/></g><path fill="#25bf6a" d="M 274.730469 120.664062 L 225.109375 119.136719 C 220.054688 118.980469 215.558594 123.109375 214.675781 128.722656 L 209.511719 161.480469 C 208.605469 167.246094 211.800781 172.65625 216.84375 173.882812 L 220.621094 174.804688 C 221.925781 175.125 222.75 176.523438 222.515625 178.015625 L 220.710938 189.46875 C 220.546875 190.511719 221.5 191.28125 222.347656 190.792969 L 238.34375 181.367188 C 239.933594 180.328125 241.808594 179.972656 243.59375 180.40625 L 265.09375 185.648438 C 271.042969 187.097656 277.023438 182.511719 278.058594 175.703125 L 284.414062 133.96875 C 285.464844 127.050781 280.960938 120.855469 274.730469 120.664062 " fill-opacity="1" fill-rule="nonzero"/><path fill="#20a65c" d="M 281.027344 123.332031 C 281.597656 125.125 281.777344 127.121094 281.460938 129.183594 L 275.109375 170.917969 C 273.925781 179.503906 270.175781 182.992188 262.144531 180.859375 L 243.308594 176.269531 C 241.597656 175.851562 239.792969 176.117188 238.273438 177.003906 L 221.089844 187.070312 L 220.710938 189.46875 C 220.546875 190.511719 221.5 191.28125 222.347656 190.792969 L 238.34375 181.367188 C 239.933594 180.328125 241.808594 179.972656 243.59375 180.40625 L 265.09375 185.648438 C 271.042969 187.097656 277.023438 182.511719 278.058594 175.703125 L 284.414062 133.96875 C 285.054688 129.757812 283.636719 125.816406 281.027344 123.332031 " fill-opacity="1" fill-rule="nonzero"/><path fill="#e3e3e3" d="M 153.570312 174.015625 C 153.855469 173.480469 154.300781 173.074219 154.863281 172.890625 L 154.886719 172.882812 C 154.175781 173.148438 153.933594 173.449219 153.570312 174.015625 M 155.371094 172.726562 L 155.378906 172.722656 L 155.371094 172.722656 C 155.371094 172.722656 155.371094 172.726562 155.371094 172.726562 M 156.492188 172.359375 L 158.371094 171.75 C 163.054688 170.226562 165.660156 164.652344 164.34375 158.964844 L 156.863281 126.652344 C 155.890625 122.449219 153.015625 119.222656 149.59375 118.109375 L 223.980469 119.171875 C 219.398438 119.609375 215.492188 123.53125 214.675781 128.722656 L 209.511719 161.480469 C 209.019531 164.621094 209.742188 167.652344 211.316406 169.960938 L 156.492188 172.359375 M 213.15625 172.007812 C 212.496094 171.457031 211.910156 170.820312 211.417969 170.109375 C 211.917969 170.820312 212.503906 171.460938 213.15625 172.007812 M 231.246094 119.324219 L 228.296875 119.234375 L 231.246094 119.324219 M 140.207031 118.296875 L 143.144531 118.015625 L 140.207031 118.296875 " fill-opacity="1" fill-rule="nonzero"/><path fill="#e32716" d="M 153.570312 174.015625 C 149.730469 171.300781 147.023438 166.8125 146.46875 161.53125 L 140.207031 118.296875 L 143.144531 118.015625 L 149.59375 118.109375 C 153.015625 119.222656 155.890625 122.449219 156.863281 126.652344 L 164.34375 158.964844 C 165.660156 164.652344 163.054688 170.226562 158.371094 171.75 L 156.492188 172.359375 L 156.480469 172.359375 L 155.378906 172.722656 L 155.371094 172.726562 C 155.1875 172.777344 155.027344 172.828125 154.886719 172.882812 L 154.863281 172.890625 C 154.300781 173.074219 153.855469 173.480469 153.570312 174.015625 " fill-opacity="1" fill-rule="nonzero"/><path fill="#21aa5e" d="M 213.996094 172.636719 L 213.785156 172.488281 C 213.570312 172.335938 213.359375 172.175781 213.15625 172.007812 C 212.503906 171.460938 211.917969 170.820312 211.417969 170.109375 C 211.382812 170.0625 211.351562 170.011719 211.316406 169.960938 C 209.742188 167.652344 209.019531 164.621094 209.511719 161.480469 L 214.675781 128.722656 C 215.492188 123.53125 219.398438 119.609375 223.980469 119.171875 L 228.296875 119.234375 L 231.246094 119.324219 C 231.242188 119.542969 231.238281 119.753906 231.238281 119.949219 L 231.238281 156.875 C 231.238281 160.707031 229.9375 164.375 227.566406 167.207031 C 225.136719 170.109375 221.816406 171.878906 218.210938 172.1875 L 213.996094 172.636719 " fill-opacity="1" fill-rule="nonzero"/><g clip-path="url(#35563fb87f)"><path fill="#ffbb02" d="M 228.453125 106.421875 C 228.183594 100.566406 223.058594 96.117188 217.195312 96.589844 L 164.105469 97.617188 C 162.269531 97.652344 153.582031 97.851562 151.871094 98.503906 C 146.667969 100.484375 144.1875 104.566406 143.214844 109.355469 C 142.679688 111.964844 142.648438 114.648438 143.039062 117.28125 L 149.398438 161.167969 C 150.164062 168.695312 156.183594 174.386719 163.175781 173.808594 L 183.226562 171.917969 C 183.914062 171.859375 184.546875 172.339844 184.746094 173.074219 L 190.574219 185.53125 C 190.683594 185.765625 190.773438 186.003906 190.871094 186.242188 C 191.53125 187.898438 193.703125 188.011719 194.460938 186.3125 L 200.929688 171.839844 C 201.15625 171.332031 201.601562 170.992188 202.109375 170.941406 L 217.929688 169.261719 C 223.773438 168.777344 228.289062 163.375 228.289062 156.875 L 228.289062 119.949219 C 228.289062 116.898438 228.683594 111.386719 228.453125 106.421875 " fill-opacity="1" fill-rule="nonzero"/></g><path fill="#e8aa02" d="M 182.1875 169.890625 C 181.988281 169.15625 181.355469 168.675781 180.667969 168.734375 L 160.613281 170.621094 C 157.128906 170.914062 153.882812 169.640625 151.410156 167.359375 C 153.886719 171.558594 158.292969 174.210938 163.175781 173.808594 L 183.140625 171.925781 L 182.1875 169.890625 " fill-opacity="1" fill-rule="nonzero"/><path fill="#e8aa02" d="M 228.453125 106.421875 C 228.316406 103.417969 226.898438 100.78125 224.761719 98.996094 C 225.421875 100.269531 225.824219 101.703125 225.894531 103.234375 C 226.125 108.203125 225.730469 113.714844 225.730469 116.765625 L 225.730469 153.691406 C 226.003906 161.765625 222.480469 165.765625 215.371094 166.078125 L 199.550781 167.753906 C 199.042969 167.808594 198.597656 168.148438 198.375 168.65625 L 191.902344 183.125 C 191.515625 183.996094 190.757812 184.390625 190.019531 184.347656 L 190.574219 185.53125 C 190.683594 185.765625 190.773438 186.003906 190.871094 186.242188 C 191.53125 187.898438 193.703125 188.011719 194.460938 186.3125 L 200.929688 171.839844 C 201.15625 171.332031 201.601562 170.992188 202.109375 170.941406 L 217.929688 169.261719 C 223.773438 168.777344 228.289062 163.375 228.289062 156.875 L 228.289062 119.949219 C 228.289062 116.898438 228.683594 111.386719 228.453125 106.421875 " fill-opacity="1" fill-rule="nonzero"/><path fill="#ffffff" d="M 199.441406 116.175781 C 196.726562 113.785156 193.058594 112.132812 188.464844 112.132812 C 184.097656 112.132812 180.585938 113.769531 177.902344 116.132812 C 176.464844 117.398438 175.382812 118.808594 174.65625 120.363281 C 173.582031 122.65625 175.285156 125.285156 177.824219 125.285156 C 179.535156 125.285156 181.113281 124.328125 181.875 122.800781 C 182.367188 121.816406 182.980469 121.015625 183.722656 120.386719 C 185.089844 119.234375 186.789062 118.65625 188.820312 118.65625 C 190.925781 118.65625 192.601562 119.210938 193.84375 120.316406 C 195.089844 121.421875 195.710938 122.753906 195.710938 124.300781 C 195.710938 125.417969 195.359375 126.441406 194.65625 127.367188 C 194.203125 127.953125 192.804688 129.191406 190.472656 131.082031 C 188.402344 132.757812 186.945312 134.285156 186.097656 135.664062 C 185.929688 135.9375 185.789062 136.21875 185.664062 136.511719 C 185.039062 137.984375 185.109375 142.058594 184.949219 145.304688 C 184.84375 147.386719 185.976562 149.136719 188.066406 149.167969 L 188.59375 149.167969 C 190.585938 149.195312 192.242188 147.644531 192.34375 145.660156 C 192.480469 142.960938 192.214844 139.859375 192.480469 139.308594 C 192.886719 138.457031 193.933594 137.332031 195.625 135.933594 C 198.890625 133.226562 201.019531 131.089844 202.015625 129.523438 C 203.011719 127.953125 203.511719 126.289062 203.511719 124.53125 C 203.511719 121.351562 202.152344 118.570312 199.441406 116.175781 " fill-opacity="1" fill-rule="nonzero"/><path fill="#ffffff" d="M 184.585938 157.222656 C 184.585938 154.835938 186.527344 152.902344 188.917969 152.902344 L 188.921875 152.902344 C 191.3125 152.902344 193.253906 154.835938 193.253906 157.222656 C 193.253906 159.605469 191.3125 161.539062 188.921875 161.539062 L 188.917969 161.539062 C 186.527344 161.539062 184.585938 159.605469 184.585938 157.222656 " fill-opacity="1" fill-rule="nonzero"/><path fill="#ffffff" d="M 263.015625 137.019531 C 261.570312 134.320312 259.148438 131.933594 255.503906 130.582031 C 252.039062 129.296875 248.765625 129.5625 245.933594 130.648438 C 244.417969 131.226562 243.144531 132.027344 242.105469 133.050781 C 240.570312 134.554688 241.144531 137.140625 243.160156 137.886719 C 244.519531 138.390625 246.054688 138.097656 247.113281 137.109375 C 247.792969 136.472656 248.519531 136.015625 249.292969 135.738281 C 250.722656 135.222656 252.238281 135.265625 253.851562 135.863281 C 255.523438 136.484375 256.691406 137.414062 257.347656 138.660156 C 258.007812 139.902344 258.109375 141.140625 257.648438 142.371094 C 257.316406 143.257812 256.734375 143.964844 255.902344 144.492188 C 255.367188 144.824219 253.894531 145.398438 251.480469 146.210938 C 249.339844 146.933594 247.730469 147.714844 246.648438 148.5625 C 246.4375 148.726562 246.238281 148.910156 246.054688 149.105469 C 245.121094 150.09375 243.96875 153.34375 242.878906 155.875 C 242.179688 157.496094 242.558594 159.21875 244.210938 159.855469 L 244.628906 160.011719 C 246.203125 160.621094 247.972656 159.875 248.644531 158.332031 C 249.554688 156.230469 250.257812 153.691406 250.632812 153.332031 C 251.210938 152.773438 252.375 152.191406 254.132812 151.578125 C 257.523438 150.390625 259.847656 149.320312 261.105469 148.371094 C 262.363281 147.417969 263.25 146.242188 263.773438 144.847656 C 264.714844 142.324219 264.460938 139.714844 263.015625 137.019531 " fill-opacity="1" fill-rule="nonzero"/><path fill="#ffffff" d="M 239.058594 165.226562 C 239.765625 163.332031 241.878906 162.367188 243.777344 163.074219 C 245.679688 163.777344 246.644531 165.882812 245.9375 167.777344 C 245.230469 169.667969 243.117188 170.632812 241.21875 169.929688 C 239.316406 169.222656 238.351562 167.117188 239.058594 165.226562 " fill-opacity="1" fill-rule="nonzero"/><path fill="#ffffff" d="M 129.183594 131.535156 C 126.703125 130.558594 123.746094 130.335938 120.570312 131.488281 C 117.550781 132.582031 115.53125 134.597656 114.273438 136.902344 C 113.597656 138.140625 113.203125 139.386719 113.09375 140.644531 C 112.929688 142.5 114.773438 143.890625 116.53125 143.253906 C 117.714844 142.824219 118.5625 141.769531 118.707031 140.519531 C 118.796875 139.71875 119.019531 139.007812 119.375 138.386719 C 120.027344 137.246094 121.058594 136.421875 122.464844 135.914062 C 123.921875 135.386719 125.21875 135.347656 126.359375 135.800781 C 127.5 136.253906 128.265625 137.019531 128.65625 138.089844 C 128.9375 138.863281 128.953125 139.660156 128.699219 140.476562 C 128.535156 140.996094 127.882812 142.203125 126.742188 144.09375 C 125.734375 145.773438 125.113281 147.195312 124.875 148.363281 C 124.828125 148.589844 124.800781 148.824219 124.789062 149.058594 C 124.730469 150.234375 125.804688 153.03125 126.515625 155.320312 C 126.96875 156.785156 128.195312 157.714844 129.648438 157.207031 L 130.011719 157.078125 C 131.398438 156.597656 132.152344 155.109375 131.722656 153.710938 C 131.132812 151.808594 130.167969 149.730469 130.210938 149.28125 C 130.277344 148.59375 130.71875 147.550781 131.535156 146.160156 C 133.109375 143.46875 134.042969 141.457031 134.335938 140.121094 C 134.628906 138.785156 134.554688 137.511719 134.109375 136.292969 C 133.308594 134.09375 131.664062 132.507812 129.183594 131.535156 " fill-opacity="1" fill-rule="nonzero"/><path fill="#ffffff" d="M 129.273438 163.65625 C 128.671875 162.003906 129.523438 160.179688 131.183594 159.582031 L 131.183594 159.578125 C 132.839844 158.980469 134.667969 159.832031 135.269531 161.480469 C 135.875 163.132812 135.019531 164.957031 133.363281 165.554688 C 131.707031 166.15625 129.875 165.304688 129.273438 163.65625 " fill-opacity="1" fill-rule="nonzero"/><g fill="#ffffff" fill-opacity="1"><g transform="translate(14.192873, 270.55132)"><g><path d="M 48.453125 10.796875 L 42.0625 0.28125 C 40.625 0.53125 38.96875 0.65625 37.09375 0.65625 C 30.832031 0.65625 25.085938 -0.8125 19.859375 -3.75 C 14.628906 -6.695312 10.476562 -10.765625 7.40625 -15.953125 C 4.34375 -21.148438 2.8125 -27.003906 2.8125 -33.515625 C 2.8125 -40.023438 4.34375 -45.878906 7.40625 -51.078125 C 10.476562 -56.273438 14.628906 -60.328125 19.859375 -63.234375 C 25.085938 -66.140625 30.832031 -67.59375 37.09375 -67.59375 C 43.34375 -67.59375 49.066406 -66.140625 54.265625 -63.234375 C 59.460938 -60.328125 63.578125 -56.273438 66.609375 -51.078125 C 69.648438 -45.878906 71.171875 -40.023438 71.171875 -33.515625 C 71.171875 -28.191406 70.132812 -23.289062 68.0625 -18.8125 C 66 -14.34375 63.15625 -10.546875 59.53125 -7.421875 L 73.046875 10.796875 Z M 24.03125 -33.515625 C 24.03125 -29.015625 25.15625 -25.429688 27.40625 -22.765625 C 29.664062 -20.109375 32.894531 -18.78125 37.09375 -18.78125 C 41.21875 -18.78125 44.40625 -20.109375 46.65625 -22.765625 C 48.914062 -25.429688 50.046875 -29.015625 50.046875 -33.515625 C 50.046875 -38.085938 48.914062 -41.703125 46.65625 -44.359375 C 44.40625 -47.023438 41.21875 -48.359375 37.09375 -48.359375 C 32.894531 -48.359375 29.664062 -47.023438 27.40625 -44.359375 C 25.15625 -41.703125 24.03125 -38.085938 24.03125 -33.515625 Z M 24.03125 -33.515625 "/></g></g></g><g fill="#ffffff" fill-opacity="1"><g transform="translate(84.695517, 270.55132)"><g><path d="M 25.0625 -66.46875 L 25.0625 -29.015625 C 25.0625 -25.941406 25.734375 -23.515625 27.078125 -21.734375 C 28.429688 -19.953125 30.609375 -19.0625 33.609375 -19.0625 C 36.617188 -19.0625 38.84375 -19.953125 40.28125 -21.734375 C 41.71875 -23.515625 42.4375 -25.941406 42.4375 -29.015625 L 42.4375 -66.46875 L 63.1875 -66.46875 L 63.1875 -29.015625 C 63.1875 -22.691406 61.867188 -17.289062 59.234375 -12.8125 C 56.609375 -8.34375 53.007812 -4.976562 48.4375 -2.71875 C 43.875 -0.46875 38.773438 0.65625 33.140625 0.65625 C 27.503906 0.65625 22.507812 -0.46875 18.15625 -2.71875 C 13.8125 -4.976562 10.414062 -8.328125 7.96875 -12.765625 C 5.53125 -17.210938 4.3125 -22.628906 4.3125 -29.015625 L 4.3125 -66.46875 Z M 25.0625 -66.46875 "/></g></g></g><g fill="#ffffff" fill-opacity="1"><g transform="translate(148.72052, 270.55132)"><g><path d="M 25.53125 -66.46875 L 25.53125 0 L 4.6875 0 L 4.6875 -66.46875 Z M 25.53125 -66.46875 "/></g></g></g><g fill="#ffffff" fill-opacity="1"><g transform="translate(175.475592, 270.55132)"><g><path d="M 27.796875 -16.625 L 54.453125 -16.625 L 54.453125 0 L 4.6875 0 L 4.6875 -15.6875 L 30.984375 -49.953125 L 4.6875 -49.953125 L 4.6875 -66.46875 L 54.453125 -66.46875 L 54.453125 -50.796875 Z M 27.796875 -16.625 "/></g></g></g><g fill="#ffffff" fill-opacity="1"><g transform="translate(231.145372, 270.55132)"><g><path d="M 27.796875 -16.625 L 54.453125 -16.625 L 54.453125 0 L 4.6875 0 L 4.6875 -15.6875 L 30.984375 -49.953125 L 4.6875 -49.953125 L 4.6875 -66.46875 L 54.453125 -66.46875 L 54.453125 -50.796875 Z M 27.796875 -16.625 "/></g></g></g><g fill="#ffffff" fill-opacity="1"><g transform="translate(286.815153, 270.55132)"><g><path d="M 37.09375 0.65625 C 30.832031 0.65625 25.085938 -0.8125 19.859375 -3.75 C 14.628906 -6.695312 10.476562 -10.765625 7.40625 -15.953125 C 4.34375 -21.148438 2.8125 -27.003906 2.8125 -33.515625 C 2.8125 -40.023438 4.34375 -45.878906 7.40625 -51.078125 C 10.476562 -56.273438 14.628906 -60.328125 19.859375 -63.234375 C 25.085938 -66.140625 30.832031 -67.59375 37.09375 -67.59375 C 43.34375 -67.59375 49.066406 -66.140625 54.265625 -63.234375 C 59.460938 -60.328125 63.578125 -56.273438 66.609375 -51.078125 C 69.648438 -45.878906 71.171875 -40.023438 71.171875 -33.515625 C 71.171875 -27.003906 69.648438 -21.148438 66.609375 -15.953125 C 63.578125 -10.765625 59.445312 -6.695312 54.21875 -3.75 C 48.988281 -0.8125 43.28125 0.65625 37.09375 0.65625 Z M 37.09375 -18.78125 C 41.21875 -18.78125 44.40625 -20.109375 46.65625 -22.765625 C 48.914062 -25.429688 50.046875 -29.015625 50.046875 -33.515625 C 50.046875 -38.085938 48.914062 -41.703125 46.65625 -44.359375 C 44.40625 -47.023438 41.21875 -48.359375 37.09375 -48.359375 C 32.894531 -48.359375 29.664062 -47.023438 27.40625 -44.359375 C 25.15625 -41.703125 24.03125 -38.085938 24.03125 -33.515625 C 24.03125 -29.015625 25.15625 -25.429688 27.40625 -22.765625 C 29.664062 -20.109375 32.894531 -18.78125 37.09375 -18.78125 Z M 37.09375 -18.78125 "/></g></g></g></svg>